<?xml version="1.0" encoding="UTF-8"?>
<svg xmlns="http://www.w3.org/2000/svg" viewBox="0 0 1280 720">
  
  <rect width="1280" height="720" fill="#003366" />

  
  <path d="M800 0 L1280 0 L1280 720 L600 720 Z" fill="#004080" fill-opacity="0.3" />
  <rect x="1200" y="0" width="80" height="720" fill="#002244" fill-opacity="0.2" />

  
  <path fill="#E87722" d="M2,240 H12 A2,2 0 0 1 14,242 V478 A2,2 0 0 1 12,480 H2 A2,2 0 0 1 0,478 V242 A2,2 0 0 1 2,240 Z" />

  
  <text x="100" y="500" fill="#FFFFFF" fill-opacity="0.06" font-family="Microsoft YaHei, 微软雅黑, Arial, sans-serif" font-size="300" font-weight="bold">03</text>

  
  <line x1="380" y1="268" x2="520" y2="268" stroke="#E87722" stroke-width="6" />

  
  <text x="380" y="345" fill="#FFFFFF" font-family="Microsoft YaHei, 微软雅黑, Arial, sans-serif" font-size="56" font-weight="bold">方法脉络</text>

  
  <text x="380" y="415" fill="#E8F4FC" font-family="Microsoft YaHei, 微软雅黑, Arial, sans-serif" font-size="24">Chronos 时序感知框架 × 认知建模统一学习架构</text>

  
  <path fill="#E87722" fill-opacity="0.25" stroke="#E87722" stroke-width="1" d="M384,460 H586 A4,4 0 0 1 590,464 V490 A4,4 0 0 1 586,494 H384 A4,4 0 0 1 380,490 V464 A4,4 0 0 1 384,460 Z" />
  <text x="485" y="482" text-anchor="middle" fill="#FFFFFF" font-family="Microsoft YaHei, 微软雅黑, Arial, sans-serif" font-size="16">文献一：arXiv:2603.16862</text>

  <path fill="#0066CC" fill-opacity="0.30" stroke="#0066CC" stroke-width="1" d="M614,460 H846 A4,4 0 0 1 850,464 V490 A4,4 0 0 1 846,494 H614 A4,4 0 0 1 610,490 V464 A4,4 0 0 1 614,460 Z" />
  <text x="730" y="482" text-anchor="middle" fill="#FFFFFF" font-family="Microsoft YaHei, 微软雅黑, Arial, sans-serif" font-size="16">文献二：preprints202602.1990</text>

  
  <text x="1240" y="690" text-anchor="end" fill="#FFFFFF" fill-opacity="0.35" font-family="Microsoft YaHei, 微软雅黑, Arial, sans-serif" font-size="18">LLM 长期记忆综述</text>
</svg>