<svg width="1280" height="720" viewBox="0 0 1280 720" xmlns="http://www.w3.org/2000/svg">
  <defs>
    <linearGradient id="headerGrad" x1="0%" y1="0%" x2="100%" y2="0%">
      <stop offset="0%" stop-color="#DE3545"/>
      <stop offset="100%" stop-color="#E8834A"/>
    </linearGradient>
    <linearGradient id="stepBg" x1="0%" y1="0%" x2="0%" y2="100%">
      <stop offset="0%" stop-color="#EDFAF3"/>
      <stop offset="100%" stop-color="#F5FDF8"/>
    </linearGradient>
  </defs>

  <!-- Background -->
  <rect x="0" y="0" width="1280" height="720" fill="#FDFAF5"/>

  <!-- Header bar -->
  <rect x="0" y="0" width="1280" height="80" fill="#FFFFFF"/>
  <rect x="0" y="78" width="1280" height="3" fill="url(#headerGrad)"/>
  <path d="M1180 0 L1280 0 L1280 80 Z" fill="#DE3545" fill-opacity="0.12"/>

  <!-- Title decoration -->
  <polygon points="60,20 72,50 60,50" fill="#DE3545"/>
  <polygon points="78,20 90,50 78,50" fill="#E8834A" fill-opacity="0.6"/>

  <!-- Page title -->
  <text x="100" y="52" font-family="'Microsoft YaHei', Arial, sans-serif" font-size="30" font-weight="bold" fill="#3D3530">例题精讲：求展开系数 c_n</text>
  <use data-icon="tabler-outline/pencil" x="1190" y="18" width="44" height="44" fill="#E8834A" fill-opacity="0.5"/>

  <!-- Problem box -->
  <rect x="60" y="92" width="1160" height="90" rx="8" fill="#EEF6FF" stroke="#2E86AB" stroke-width="2"/>
  <rect x="60" y="92" width="8" height="90" rx="4" fill="#2E86AB"/>
  <text x="88" y="116" font-family="'Microsoft YaHei', Arial, sans-serif" font-size="19" font-weight="bold" fill="#2E86AB">【题目】</text>
  <text x="88" y="145" font-family="'Microsoft YaHei', Arial, sans-serif" font-size="19" fill="#3D3530">已知 t=0 时，Ψ(x,0) = Ax(a-x)（0 &lt; x &lt; a），求归一化常数 A 及展开系数 c_n。</text>
  <text x="88" y="170" font-family="Consolas, monospace" font-size="17" fill="#7A6E68">（其中 ψ_n(x) = √(2/a) sin(nπx/a) 为无限深方势阱本征函数）</text>

  <!-- Steps: left column -->
  <!-- Step 1 -->
  <rect x="60" y="196" width="580" height="130" rx="8" fill="#FFFFFF" stroke="#4CAF7D" stroke-width="1.5"/>
  <rect x="60" y="196" width="580" height="40" rx="8" fill="#4CAF7D" fill-opacity="0.15"/>
  <rect x="60" y="216" width="580" height="20" fill="#4CAF7D" fill-opacity="0.15"/>
  <circle cx="90" cy="216" r="14" fill="#4CAF7D"/>
  <text x="90" y="221" font-family="Arial, sans-serif" font-size="14" font-weight="bold" fill="#FFFFFF" text-anchor="middle">1</text>
  <text x="116" y="221" font-family="'Microsoft YaHei', Arial, sans-serif" font-size="18" font-weight="bold" fill="#4CAF7D">归一化：求 A</text>
  <text x="80" y="258" font-family="Consolas, monospace" font-size="17" fill="#3D3530">∫₀ᵃ |Ax(a-x)|² dx = 1</text>
  <text x="80" y="285" font-family="Consolas, monospace" font-size="17" fill="#3D3530">A²·a⁵/30 = 1</text>
  <rect x="80" y="295" width="540" height="22" rx="4" fill="#4CAF7D" fill-opacity="0.12"/>
  <text x="350" y="311" font-family="Consolas, monospace" font-size="17" fill="#4CAF7D" text-anchor="middle" font-weight="bold">A = √(30/a⁵)</text>

  <!-- Step 2 -->
  <rect x="660" y="196" width="580" height="130" rx="8" fill="#FFFFFF" stroke="#2E86AB" stroke-width="1.5"/>
  <rect x="660" y="196" width="580" height="40" rx="8" fill="#2E86AB" fill-opacity="0.15"/>
  <rect x="660" y="216" width="580" height="20" fill="#2E86AB" fill-opacity="0.15"/>
  <circle cx="690" cy="216" r="14" fill="#2E86AB"/>
  <text x="690" y="221" font-family="Arial, sans-serif" font-size="14" font-weight="bold" fill="#FFFFFF" text-anchor="middle">2</text>
  <text x="716" y="221" font-family="'Microsoft YaHei', Arial, sans-serif" font-size="18" font-weight="bold" fill="#2E86AB">利用正交归一性求 c_n</text>
  <text x="680" y="258" font-family="Consolas, monospace" font-size="17" fill="#3D3530">c_n = ∫₀ᵃ ψ_n*(x)·Ψ(x,0) dx</text>
  <text x="680" y="285" font-family="Consolas, monospace" font-size="17" fill="#3D3530">= ∫₀ᵃ √(2/a)·sin(nπx/a)·Ax(a-x) dx</text>
  <text x="680" y="310" font-family="'Microsoft YaHei', Arial, sans-serif" font-size="15" fill="#7A6E68">（利用分部积分计算）</text>

  <!-- Step 3: Result -->
  <rect x="60" y="340" width="1160" height="100" rx="8" fill="#FFFFFF" stroke="#E8834A" stroke-width="1.5"/>
  <rect x="60" y="340" width="8" height="100" rx="4" fill="#E8834A"/>
  <circle cx="90" cy="390" r="14" fill="#E8834A"/>
  <text x="90" y="395" font-family="Arial, sans-serif" font-size="14" font-weight="bold" fill="#FFFFFF" text-anchor="middle">3</text>
  <text x="116" y="365" font-family="'Microsoft YaHei', Arial, sans-serif" font-size="18" font-weight="bold" fill="#E8834A">计算结果</text>
  <!-- Two cases -->
  <rect x="116" y="372" width="500" height="56" rx="4" fill="#FFF4EC"/>
  <text x="366" y="396" font-family="Consolas, monospace" font-size="17" fill="#E8834A" text-anchor="middle">c_n = 0，当 n 为偶数</text>
  <text x="366" y="420" font-family="'Microsoft YaHei', Arial, sans-serif" font-size="15" fill="#7A6E68" text-anchor="middle">（奇函数与偶函数乘积积分为零）</text>

  <rect x="636" y="372" width="564" height="56" rx="4" fill="#FFF4EC"/>
  <text x="918" y="396" font-family="Consolas, monospace" font-size="17" fill="#DE3545" text-anchor="middle" font-weight="bold">c_n = 8√15 / (nπ)³，当 n 为奇数</text>
  <text x="918" y="420" font-family="'Microsoft YaHei', Arial, sans-serif" font-size="15" fill="#7A6E68" text-anchor="middle">（n = 1, 3, 5, ...）</text>

  <!-- Check mark -->
  <use data-icon="tabler-outline/circle-check" x="1190" y="355" width="36" height="36" fill="#4CAF7D"/>

  <!-- Error warning box -->
  <rect x="60" y="454" width="1160" height="110" rx="8" fill="#FFF0F1" stroke="#DE3545" stroke-width="2"/>
  <rect x="60" y="454" width="8" height="110" rx="4" fill="#DE3545"/>
  <use data-icon="tabler-outline/pencil-exclamation" x="80" y="468" width="32" height="32" fill="#DE3545"/>
  <text x="126" y="488" font-family="'Microsoft YaHei', Arial, sans-serif" font-size="19" font-weight="bold" fill="#DE3545">【易错点提醒】</text>
  <text x="80" y="520" font-family="'Microsoft YaHei', Arial, sans-serif" font-size="19" fill="#3D3530">
    <tspan font-weight="bold" fill="#DE3545">易错1：</tspan>
    <tspan>量子数 n 从 1 开始，不是 0！n=0 时 ψ=0，无物理意义。</tspan>
  </text>
  <text x="80" y="550" font-family="'Microsoft YaHei', Arial, sans-serif" font-size="19" fill="#3D3530">
    <tspan font-weight="bold" fill="#DE3545">易错2：</tspan>
    <tspan>c_n 不是概率，|c_n|² 才是测量得到 E_n 的概率，且 Σ|c_n|² = 1。</tspan>
  </text>

  <!-- Time evolution note -->
  <rect x="60" y="578" width="1160" height="72" rx="8" fill="#EDFAF3" stroke="#4CAF7D" stroke-width="1.5" stroke-opacity="0.5"/>
  <use data-icon="tabler-outline/circle-check" x="80" y="594" width="28" height="28" fill="#4CAF7D"/>
  <text x="122" y="610" font-family="'Microsoft YaHei', Arial, sans-serif" font-size="18" font-weight="bold" fill="#4CAF7D">时间演化：</text>
  <text x="122" y="638" font-family="Consolas, monospace" font-size="17" fill="#3D3530">Ψ(x,t) = Σ c_n · ψ_n(x) · e^(-iE_n t/ℏ)  （叠加态，不是定态！）</text>

  <!-- Footer -->
  <rect x="0" y="690" width="1280" height="30" fill="#3D3530" fill-opacity="0.06"/>
  <text x="60" y="709" font-family="Arial, sans-serif" font-size="13" fill="#A89E98">量子力学基础 · 定态与一维无限深方势阱</text>
  <text x="1220" y="709" font-family="Arial, sans-serif" font-size="13" fill="#A89E98" text-anchor="end">10</text>
</svg>
