<?xml version="1.0" encoding="UTF-8"?>
<svg xmlns="http://www.w3.org/2000/svg" viewBox="0 0 1280 720">
  <!-- 背景 -->
  <rect width="1280" height="720" fill="#FFFFFF"/>

  <!-- 页眉 -->
  <rect x="0" y="0" width="1280" height="70" fill="#003366"/>
  <rect x="0" y="0" width="8" height="70" fill="#E87722"/>
  <text x="40" y="46" fill="#FFFFFF" font-family="Microsoft YaHei, 微软雅黑, Arial, sans-serif" font-size="26" font-weight="bold">06　局限性与挑战</text>
  <text x="1240" y="46" text-anchor="end" fill="#FFFFFF" font-family="Microsoft YaHei, 微软雅黑, Arial, sans-serif" font-size="15">LLM 长期记忆综述</text>

  <!-- 核心观点条 -->
  <rect x="0" y="70" width="1280" height="50" fill="#E8F4FC"/>
  <rect x="0" y="70" width="6" height="50" fill="#0066CC"/>
  <text x="30" y="102" fill="#333333" font-family="Microsoft YaHei, 微软雅黑, Arial, sans-serif" font-size="17">两框架面临共同挑战：存储开销、推理计算成本与大规模扩展性——结构与效率的权衡持续存在</text>

  <!-- 左侧：Chronos 局限性 -->
  <rect x="40" y="135" width="590" height="390" fill="#FFFFFF" stroke="#D0D7E0" stroke-width="1" rx="10"/>
  <rect x="40" y="135" width="590" height="48" fill="#003366" rx="10"/>
  <rect x="40" y="160" width="590" height="23" fill="#003366"/>
  <use data-icon="tabler-outline/alert-triangle" x="58" y="148" width="24" height="24" fill="#E87722"/>
  <text x="100" y="167" fill="#FFFFFF" font-family="Microsoft YaHei, 微软雅黑, Arial, sans-serif" font-size="18" font-weight="bold">Chronos 局限性</text>
  <rect x="750" y="148" width="120" height="24" fill="#E87722" fill-opacity="0.25" rx="4"/>
  <text x="810" y="164" text-anchor="middle" fill="#FFFFFF" font-family="Microsoft YaHei, 微软雅黑, Arial, sans-serif" font-size="13">arXiv:2603.16862</text>

  <!-- L1 -->
  <rect x="60" y="198" width="550" height="68" fill="#F5F7FA" rx="6"/>
  <rect x="60" y="198" width="4" height="68" fill="#E87722" rx="2"/>
  <text x="80" y="220" fill="#003366" font-family="Microsoft YaHei, 微软雅黑, Arial, sans-serif" font-size="16" font-weight="bold">① 双索引存储开销</text>
  <text x="80" y="242" fill="#555555" font-family="Microsoft YaHei, 微软雅黑, Arial, sans-serif" font-size="14">对话历法 + 事件历法双存储，空间开销高于纯对话系统</text>
  <text x="80" y="258" fill="#999999" font-family="Microsoft YaHei, 微软雅黑, Arial, sans-serif" font-size="13">缓解：稀疏事件提取，仅索引时序性事件，保持历法紧凑</text>

  <!-- L2 -->
  <rect x="60" y="278" width="550" height="68" fill="#F5F7FA" rx="6"/>
  <rect x="60" y="278" width="4" height="68" fill="#E87722" rx="2"/>
  <text x="80" y="300" fill="#003366" font-family="Microsoft YaHei, 微软雅黑, Arial, sans-serif" font-size="16" font-weight="bold">② 离线提取计算成本</text>
  <text x="80" y="322" fill="#555555" font-family="Microsoft YaHei, 微软雅黑, Arial, sans-serif" font-size="14">LLM 驱动的事件提取在摄入阶段增加计算开销</text>
  <text x="80" y="338" fill="#999999" font-family="Microsoft YaHei, 微软雅黑, Arial, sans-serif" font-size="13">缓解：批处理（每批25轮，5轮重叠）+ 轻量模型提取</text>

  <!-- L3 -->
  <rect x="60" y="358" width="550" height="68" fill="#F5F7FA" rx="6"/>
  <rect x="60" y="358" width="4" height="68" fill="#E87722" rx="2"/>
  <text x="80" y="380" fill="#003366" font-family="Microsoft YaHei, 微软雅黑, Arial, sans-serif" font-size="16" font-weight="bold">③ 并行检索推理延迟</text>
  <text x="80" y="402" fill="#555555" font-family="Microsoft YaHei, 微软雅黑, Arial, sans-serif" font-size="14">查询时双路召回增加响应延迟，高吞吐场景受影响</text>
  <text x="80" y="418" fill="#999999" font-family="Microsoft YaHei, 微软雅黑, Arial, sans-serif" font-size="13">缓解：预先完成对话历法初始检索，减少推理中冗余搜索</text>

  <!-- L4 -->
  <rect x="60" y="438" width="550" height="52" fill="#F5F7FA" rx="6"/>
  <rect x="60" y="438" width="4" height="52" fill="#E87722" rx="2"/>
  <text x="80" y="458" fill="#003366" font-family="Microsoft YaHei, 微软雅黑, Arial, sans-serif" font-size="16" font-weight="bold">④ 偏好召回（SSP）仍弱</text>
  <text x="80" y="478" fill="#555555" font-family="Microsoft YaHei, 微软雅黑, Arial, sans-serif" font-size="14">Low 配置 SSP 80%，落后 Honcho 10pp，偏好类查询需专项优化</text>

  <!-- 右侧：认知建模局限性 -->
  <rect x="650" y="135" width="590" height="390" fill="#FFFFFF" stroke="#D0D7E0" stroke-width="1" rx="10"/>
  <rect x="650" y="135" width="590" height="48" fill="#003366" rx="10"/>
  <rect x="650" y="160" width="590" height="23" fill="#003366"/>
  <use data-icon="tabler-outline/alert-triangle" x="668" y="148" width="24" height="24" fill="#E87722"/>
  <text x="710" y="167" fill="#FFFFFF" font-family="Microsoft YaHei, 微软雅黑, Arial, sans-serif" font-size="18" font-weight="bold">认知建模框架局限性</text>
  <rect x="1140" y="148" width="80" height="24" fill="#0066CC" fill-opacity="0.30" rx="4"/>
  <text x="1180" y="164" text-anchor="middle" fill="#FFFFFF" font-family="Microsoft YaHei, 微软雅黑, Arial, sans-serif" font-size="12">preprints</text>

  <!-- R1 -->
  <rect x="670" y="198" width="550" height="68" fill="#F5F7FA" rx="6"/>
  <rect x="670" y="198" width="4" height="68" fill="#0066CC" rx="2"/>
  <text x="690" y="220" fill="#003366" font-family="Microsoft YaHei, 微软雅黑, Arial, sans-serif" font-size="16" font-weight="bold">① 记忆容量超参敏感</text>
  <text x="690" y="242" fill="#555555" font-family="Microsoft YaHei, 微软雅黑, Arial, sans-serif" font-size="14">性能对K值非线性，工程部署中超参调优成本高</text>
  <text x="690" y="258" fill="#999999" font-family="Microsoft YaHei, 微软雅黑, Arial, sans-serif" font-size="13">需要任务自适应容量策略，避免"过大引入噪声"陷阱</text>

  <!-- R2 -->
  <rect x="670" y="278" width="550" height="68" fill="#F5F7FA" rx="6"/>
  <rect x="670" y="278" width="4" height="68" fill="#0066CC" rx="2"/>
  <text x="690" y="300" fill="#003366" font-family="Microsoft YaHei, 微软雅黑, Arial, sans-serif" font-size="16" font-weight="bold">② 注意力机制可解释性低</text>
  <text x="690" y="322" fill="#555555" font-family="Microsoft YaHei, 微软雅黑, Arial, sans-serif" font-size="14">记忆检索过程基于注意力权重，内部机制难以直接解读</text>
  <text x="690" y="338" fill="#999999" font-family="Microsoft YaHei, 微软雅黑, Arial, sans-serif" font-size="13">对安全敏感场景的可审计性构成挑战</text>

  <!-- R3 -->
  <rect x="670" y="358" width="550" height="68" fill="#F5F7FA" rx="6"/>
  <rect x="670" y="358" width="4" height="68" fill="#0066CC" rx="2"/>
  <text x="690" y="380" fill="#003366" font-family="Microsoft YaHei, 微软雅黑, Arial, sans-serif" font-size="16" font-weight="bold">③ 评测范围受限</text>
  <text x="690" y="402" fill="#555555" font-family="Microsoft YaHei, 微软雅黑, Arial, sans-serif" font-size="14">仅在 WebShop 单一数据集验证，跨领域泛化未评估</text>
  <text x="690" y="418" fill="#999999" font-family="Microsoft YaHei, 微软雅黑, Arial, sans-serif" font-size="13">需在开放世界交互、多领域长期规划场景中进一步验证</text>

  <!-- R4 -->
  <rect x="670" y="438" width="550" height="52" fill="#F5F7FA" rx="6"/>
  <rect x="670" y="438" width="4" height="52" fill="#0066CC" rx="2"/>
  <text x="690" y="458" fill="#003366" font-family="Microsoft YaHei, 微软雅黑, Arial, sans-serif" font-size="16" font-weight="bold">④ 缺乏安全/资源约束</text>
  <text x="690" y="478" fill="#555555" font-family="Microsoft YaHei, 微软雅黑, Arial, sans-serif" font-size="14">实际部署的安全限制与资源约束未在框架中建模</text>

  <!-- 底部综合挑战 -->
  <rect x="40" y="540" width="1200" height="100" fill="#003366" fill-opacity="0.05" stroke="#003366" stroke-width="1" rx="8"/>
  <text x="640" y="568" text-anchor="middle" fill="#003366" font-family="Microsoft YaHei, 微软雅黑, Arial, sans-serif" font-size="17" font-weight="bold">两框架共同面临的挑战</text>
  <rect x="60" y="578" width="1160" height="1" fill="#D0D7E0"/>
  <text x="60" y="600" fill="#333333" font-family="Microsoft YaHei, 微软雅黑, Arial, sans-serif" font-size="15">■  记忆精确性 vs 检索效率的根本权衡　■  长期运行中记忆的老化与主动更新策略</text>
  <text x="60" y="624" fill="#333333" font-family="Microsoft YaHei, 微软雅黑, Arial, sans-serif" font-size="15">■  多用户/多 Agent 场景下的共享记忆架构扩展　■  连续学习环境中的安全可控记忆管理</text>

  <!-- 页脚 -->
  <line x1="40" y1="665" x2="1240" y2="665" stroke="#E8F4FC" stroke-width="1"/>
  <text x="40" y="695" fill="#999999" font-family="Microsoft YaHei, 微软雅黑, Arial, sans-serif" font-size="12">来源：Chronos §5 Limitations | 认知建模 §V Conclusions</text>
  <text x="640" y="695" text-anchor="middle" fill="#999999" font-family="Microsoft YaHei, 微软雅黑, Arial, sans-serif" font-size="12">局限性与挑战</text>
  <text x="1240" y="695" text-anchor="end" fill="#666666" font-family="Microsoft YaHei, 微软雅黑, Arial, sans-serif" font-size="14">11 / 12</text>
</svg>
